<svg width="40" height="2038" xmlns="http://www.w3.org/2000/svg" xmlns:xlink="http://www.w3.org/1999/xlink"><defs><path id="a" d="M.32889 3.52h3.2865V.23267H.3289z"/><path id="c" d="M.32889 3.52h3.2865V.23267H.3289z"/></defs><g fill="none" fill-rule="evenodd"><path d="M0-2h40v40H0z"/><g fill-rule="nonzero"><g fill="#14BEF0"><path d="M33.026 5.52C27.463-.35 18.57-1.703 11.511 2.255c-.48.27-.65.88-.38 1.362.27.48.88.653 1.36.383 6.26-3.51 14.16-2.31 19.09 2.897.38.4 1.01.418 1.42.038.4-.38.42-1.013.04-1.414l-.015-.001z"/><path d="M32.65 31.872c6.153-5.248 7.97-14.058 4.386-21.315-.245-.495-.844-.698-1.34-.453-.495.244-.698.844-.453 1.34 3.178 6.434 1.565 14.253-3.892 18.906-.42.358-.47.99-.11 1.41.36.42.99.47 1.41.112h-.001z" opacity=".7"/><path d="M6.035 25.82c-3.537-6.24-2.378-14.137 2.81-19.097.4-.382.413-1.015.03-1.414-.38-.4-1.014-.42-1.413-.04-5.85 5.59-7.155 14.49-3.167 21.53.272.48.883.65 1.363.37.48-.27.65-.88.377-1.37v.021z" opacity=".2"/><path d="M27.78 32.464c-6.3 3.427-14.177 2.13-19.045-3.142-.375-.406-1.008-.43-1.413-.057-.406.375-.43 1.008-.057 1.413 5.49 5.946 14.367 7.408 21.47 3.543.486-.26.665-.87.402-1.35-.264-.48-.872-.66-1.357-.4v-.007z" opacity=".5"/></g><g transform="translate(9 7)"><circle fill="#2F3D99" cx="11.951" cy="11.951" r="11.951"/><path d="M2.897 12.786h18.534c.495 0 .896-.4.896-.896 0-.49-.4-.89-.896-.89H2.897c-.495 0-.897.4-.897.9s.402.9.897.9v-.014z" fill="#FFF"/></g></g><path d="M0 61h40v40H0z"/><g fill-rule="nonzero"><path d="M6.35 71.31l3.96-3.96c.387-.387.387-1.013 0-1.4s-1.013-.387-1.4 0l-3.96 3.96c-.387.387-.387 1.013 0 1.4s1.013.387 1.4 0zm24.34-3.96l3.96 3.96c.387.387 1.013.387 1.4 0s.387-1.013 0-1.4l-3.96-3.96c-.387-.387-1.013-.387-1.4 0s-.387 1.013 0 1.4zm-2.215 25.545l2.11 3.893c.26.48.86.66 1.34.4.48-.26.66-.862.4-1.343l-2.11-3.893c-.26-.48-.86-.66-1.34-.4-.48.26-.66.862-.4 1.343zm-17.77-.948l-1.98 3.96c-.245.49-.047 1.084.442 1.328.49.245 1.084.047 1.328-.442l1.98-3.96c.245-.49.047-1.084-.442-1.328-.49-.245-1.084-.047-1.328.442z" fill="#14BEF0"/><path d="M35.35 81.5c0-8.2-6.65-14.85-14.85-14.85S5.65 73.3 5.65 81.5 12.3 96.35 20.5 96.35 35.35 89.7 35.35 81.5z" fill="#2F3D99"/><path d="M21.547 72.454c.007-.547-.43-.996-.977-1.003-.547 0-.996.43-1.003.98l-.123 9.56c-.004.27.097.52.28.71l4.41 4.55c.38.39 1.007.4 1.4.02.39-.38.4-1 .02-1.4l-4.125-4.25.11-9.15.008-.017z" fill="#FFF"/></g><path d="M0 124h40v40H0z"/><g transform="translate(7 126)" fill-rule="nonzero"><path d="M14.3 4.28v3.716s.15 1.104-1.07 2.064c-1.22.962-2.848 2.05-2.848 6.067V31.32s-.225 2.265 1.846 2.265h9.38s1.265-.11 1.265-1.92v-16.12s.185-3.496-3.127-5.816c-.504-.36-.87-.52-.87-1.74v-3.8s.788 0 .788-.61V1.46c0-.155-.143-.448-.44-.466-2.17.02-4.326.01-5.278.01-.322-.004-.506.125-.506.63v1.95c0 .696.86.696.86.696z" fill="#2F3D99"/><path d="M4.924 6.338v3.715s.153 1.105-1.068 2.066c-1.22.96-2.85 2.04-2.85 6.06v15.19s-.224 2.26 1.847 2.26h9.38s1.265-.11 1.265-1.92V17.6s.185-3.493-3.127-5.814c-.5-.352-.86-.517-.86-1.733v-3.8s.79 0 .79-.61v-2.12c0-.155-.14-.448-.44-.466-2.17.013-4.32.007-5.28.003-.32-.002-.5.128-.5.633v1.95c0 .695.86.695.86.695h-.017z" fill="#2F3D99"/><path fill="#FFF" d="M1 17.457v13.76h4.165v-13.76"/><ellipse fill="#14BEF0" cx="16.625" cy="27.743" rx="9.375" ry="9.257"/><rect fill="#FFF" x="8.727" y="26.849" width="15.625" height="2.057" rx="1.0285"/></g><path d="M0 186h40v40H0z"/><g transform="translate(7 192)"><rect fill="#2F3D99" fill-rule="nonzero" y="21.13" width="25.634" height="5.87" rx="1"/><path fill="#FFF" fill-rule="nonzero" d="M16.313 21.13h2.33V27h-2.33z"/><path d="M0 22.126c0-.55.445-.996.996-.996h2.208s-.066.2 0 .54c.065.34.23.566.23.934 0 .75-.518.847-.567 1.597-.02.3.568.81.568 1.23 0 .21-.23 1.58-.23 1.58H.995C.445 27 0 26.56 0 26.01v-3.884z" fill="#14BEF0" fill-rule="nonzero"/><path d="M3.12 15.32s4.69-2.762 4.69-8.082S2.7.356 2.7.356" stroke="#14BEF0" stroke-width="1.5"/><path d="M.66373 20C.26977 19.42018 0 18.74552 0 17.98494c0-2.829 2.36266-4.14866 5.3366-6.81764C8.31267 8.5003 7.164 4 2.9386 4" stroke="#14BEF0" stroke-width="1.5"/></g><path d="M0 249h40v40H0z"/><g fill-rule="nonzero"><path d="M33.3 255.148H12.09c-1.902 0-3.445 1.365-3.445 3.048 0 1.616 1.428 2.926 3.226 3.028-3.1 2.197-5.1 5.575-5.1 9.37 0 4.702 3.05 8.768 7.51 10.733l-.7 2h18.1s1.63-1.483 1.63-5.582c0-4.1-3.25-7.33-3.25-10.123 0-2.79 3.26-9.944 3.26-12.474" fill="#2F3D99"/><path d="M19.357 278.784c4.34 0 7.86-3.574 7.86-7.98 0-4.41-3.52-7.982-7.86-7.982s-7.86 3.573-7.86 7.98c0 4.408 3.52 7.982 7.86 7.982z" fill="#14BEF0"/><path d="M20.838 267.147c-.804 0-1.504.443-1.883 1.1-.377-.657-1.077-1.1-1.882-1.1-1.202 0-2.178.99-2.178 2.212 0 2.36 3.644 4.84 4.06 5.63.418-.79 4.062-3.27 4.062-5.63 0-1.23-.975-2.22-2.18-2.22l.001.008z" fill="#FFF"/></g><path d="M0 312h40v40H0z"/><path d="M4 333.46722C4 331.53492 5.35615 330 7 330v7c-1.64385 0-3-1.59949-3-3.53279z" fill="#2F3D99" fill-rule="nonzero"/><path d="M35 333.5c0 8.00784-6.49014 14.5-14.5 14.5-8.00683 0-14.5-6.49216-14.5-14.5 0-8.00885 6.49317-14.5 14.5-14.5 8.00986 0 14.5 6.49115 14.5 14.5z" fill="#2F3D99" fill-rule="nonzero"/><path d="M18 316.05323V319m2.46043-2.94677V319m2.46043-3v2.94677" stroke="#2F3D99" fill="#2F3D99" fill-rule="nonzero" stroke-linecap="round"/><path d="M34.10319 330c1.5342.04371 2.92357 1.59952 2.89642 3.53187-.02987 1.93234-1.4645 3.51-2.99961 3.46728L34.10228 330" fill="#2F3D99" fill-rule="nonzero"/><g fill-rule="nonzero"><path d="M25.96864 338.49042l-.00676-.12084c0-.9562-.45845-1.56986-1.00763-1.9597-.79144-.5632-1.80486-.52853-2.62526-.00315-.97482.63047-1.84347.5296-1.84347.5296s-.86865.09982-1.85312-.5296c-.81074-.52538-1.83382-.56006-2.62526.00316-.55014.38878-1.00377 1.00243-1.00377 1.95969v.12084c-.06756 1.61819.88795 3.01887 2.22954 3.50958h6.53418c1.34159-.49071 2.2971-1.8914 2.22954-3.50958" fill="#14BEF0"/><path d="M25.96188 338.36958c0-.9562-.45845-1.56986-1.00763-1.9597-.79144-.5632-1.80486-.52853-2.62526-.00315-.97482.63047-1.84347.5296-1.84347.5296s-.86865.09982-1.85312-.5296c-.81074-.52538-1.83382-.56006-2.62526.00316-.55014.38878-1.00377 1.00243-1.00377 1.95969v.12084c-.06756 1.61819.88795 3.01887 2.22954 3.50958h6.53418c1.34159-.49071 2.2971-1.8914 2.22954-3.50958v-.12084h-.03475z" fill="#FFF"/><path d="M22.365 338.693c.01.052.02.103.023.156.005.05.01.1.01.16s-.005.12-.012.18c0 .01-.004.02-.006.03-.006.05-.015.1-.026.15l-.005.02c-.02.05-.03.11-.05.16-.02.05-.05.11-.07.16.68.48 1.13 1.27 1.13 2.17 0 1.47-1.19 2.66-2.66 2.66-1.47 0-2.66-1.19-2.66-2.66 0-.9.45-1.69 1.13-2.17-.03-.06-.05-.11-.07-.17l-.01-.01c-.02-.06-.04-.11-.05-.16 0-.01 0-.02-.01-.03l-.03-.15-.01-.03c-.01-.06-.01-.13-.01-.19v-.16c.01-.05.01-.11.02-.16-1.17.6-1.97 1.82-1.97 3.22 0 2 1.63 3.62 3.63 3.62s3.624-1.63 3.624-3.63c0-1.4-.8-2.616-1.963-3.22" fill="#14BEF0"/><path d="M23 338.944c0 1.25-1.016 2.266-2.267 2.266-1.252 0-2.267-1.015-2.267-2.266 0-1.252 1.015-2.267 2.267-2.267 1.25 0 2.266 1.015 2.266 2.267" fill="#14BEF0"/><path d="M22.046 338.954c0 .732-.592 1.324-1.324 1.324-.73 0-1.324-.592-1.324-1.324 0-.73.593-1.324 1.324-1.324.732 0 1.324.593 1.324 1.324" fill="#2F3D99"/></g><path d="M14 330.07797s2.04896 2.0592 4.68171.02293m4.6376-.1009s2.04793 2.0638 4.68069.02752" stroke="#14BEF0" stroke-linecap="round"/><path d="M0 383h28v28H0z"/><g transform="translate(0 388)" fill-rule="nonzero"><path d="M27.8 5.838H1V.474c0-.254.207-.46.462-.46H27.34c.254 0 .46.206.46.46v5.364z" fill="#FAB446"/><path d="M27.34 17.486H1.46c-.255 0-.462-.206-.462-.46v-5.364h26.8v5.364c0 .254-.206.46-.46.46h.002z" fill="#73AF00"/><path fill="#F5F5F5" d="M1 5.838h26.8v5.824H1z"/><g transform="translate(11.888 6.25)" fill="#41479B"><path d="M2.513 4.97C1.143 4.97.03 3.864.03 2.5.03 1.137 1.142.03 2.512.03S4.996 1.136 4.996 2.5c0 1.363-1.114 2.47-2.483 2.47zm0-4.482C1.398.488.49 1.39.49 2.5c0 1.11.908 2.012 2.023 2.012 1.114 0 2.02-.903 2.02-2.012 0-1.11-.906-2.012-2.02-2.012z"/><circle cx="2.513" cy="2.5" r="1"/><path d="M2.513 2.564l-.716.082L.26 2.564v-.096l1.537-.082.716.082m0 .096l.715.082 1.537-.082v-.096l-1.537-.082-.715.082"/><path d="M2.48 2.5l-.08-.712.08-1.53h.097l.083 1.53-.083.712m-.097 0l-.082.712.083 1.53h.1l.09-1.53-.09-.712"/><path d="M2.483 2.53l-.557-.453L.89.945l.06-.06 1.138 1.03.454.555m-.06.06l.456.554 1.138 1.03.06-.06L3.1 2.924l-.558-.453"/><path d="M2.483 2.47l.455-.554L4.076.886l.06.06L3.1 2.076l-.558.453m-.06-.06l-.556.45L.89 4.05l.06.06 1.138-1.03.454-.555"/><path d="M2.53 2.54l-.635.338-1.447.52-.033-.08 1.393-.65.688-.207m.034.08l.687-.2 1.393-.66-.032-.07-1.448.52-.634.34"/><path d="M2.474 2.516l-.34-.63L1.61.446l.08-.034.655 1.388.207.684m-.078.032l.207.685.66 1.39.08-.03-.52-1.44-.34-.63"/><path d="M2.496 2.54l-.688-.207L.415 1.68l.033-.077 1.447.52.634.338"/><path d="M2.496 2.54l.634.338 1.448.52.032-.08-1.393-.65-.688-.207"/><path d="M2.474 2.484L2.68 1.8 3.337.412l.078.032-.522 1.44-.34.63m-.08-.03l-.34.63-.52 1.44.077.033.655-1.386.207-.68"/></g><circle fill="#F5F5F5" cx="14.401" cy="8.75" r="1"/><circle fill="#41479B" cx="14.423" cy="8.773" r="1"/></g><path d="M0 434h28v28H0z"/><g fill-rule="nonzero"><path d="M27.082 456.736H1.335c-.254 0-.46-.206-.46-.46v-16.552c0-.254.206-.46.46-.46h25.747c.254 0 .46.206.46.46v16.552c0 .254-.206.46-.46.46z" fill="#41479B"/><path d="M14.395 441.265l.185.553.582.004c.076 0 .107.097.046.142l-.468.346.175.555c.023.072-.06.132-.12.088l-.474-.34-.47.34c-.06.044-.14-.016-.12-.088l.18-.555-.47-.346c-.06-.045-.03-.14.05-.142l.59-.004.19-.553c.03-.072.13-.072.15 0h-.026zm0 11.868l.185.552.582.005c.076 0 .107.097.046.142l-.468.346.175.555c.023.072-.06.132-.12.088l-.474-.33-.47.34c-.06.05-.14-.01-.12-.09l.18-.55-.47-.34c-.06-.04-.03-.14.05-.14h.59l.19-.55c.03-.07.13-.07.15 0l-.026-.028zm5.935-5.933l.184.552.582.004c.076 0 .107.097.046.142l-.468.346.175.555c.02.07-.06.13-.12.08l-.48-.34-.48.34c-.06.04-.15-.02-.12-.09l.17-.56-.47-.35c-.06-.05-.03-.14.04-.14l.58-.01.18-.56c.02-.08.12-.08.15 0l.031.031zm-11.87 0l.186.552.582.004c.076 0 .107.097.046.142l-.468.346.175.555c.03.07-.05.13-.12.08l-.47-.34-.47.34c-.06.04-.14-.02-.12-.09l.18-.56-.47-.35c-.06-.05-.03-.14.05-.14l.59-.01.18-.56c.03-.08.13-.08.15 0l-.021.031zm.892-3.1l.185.553.582.004c.07 0 .1.097.04.142l-.47.34.17.55c.02.07-.06.13-.12.08l-.48-.34-.48.34c-.07.04-.15-.02-.12-.09l.17-.56-.47-.35c-.06-.05-.03-.14.05-.14l.58-.01.18-.55c.02-.07.12-.07.15 0l.033.031zm10.278 5.934l.184.553.583.004c.076.01.107.1.046.15l-.47.35.177.56c.023.07-.06.13-.12.09l-.474-.34-.474.34c-.062.05-.144-.01-.12-.08l.175-.56-.47-.35c-.06-.04-.028-.14.047-.14h.583l.184-.55c.03-.07.13-.07.15 0l-.001-.027zm-2.172-8.106l.184.553.583.01c.076 0 .107.1.046.14l-.46.35.18.56c.03.07-.06.13-.12.09l-.47-.34-.47.34c-.06.05-.14-.01-.12-.08l.18-.55-.47-.34c-.06-.04-.03-.14.05-.14h.58l.19-.55c.03-.07.13-.07.15 0l-.033-.043zm-5.934 10.278l.184.553h.583c.08 0 .11.09.05.14l-.47.34.18.55c.03.07-.06.13-.12.08l-.47-.34-.47.34c-.06.04-.14-.02-.12-.09l.18-.56-.47-.35c-.06-.05-.03-.14.05-.14l.59-.01.19-.55c.03-.07.13-.07.15 0l-.037.037zm7.956-8.106l-.183.553-.583.004c-.075 0-.107.097-.046.142l.47.34-.177.55c-.02.07.06.13.13.08l.48-.34.48.34c.06.04.15-.02.12-.09l-.17-.56.47-.35c.06-.05.03-.14-.04-.14l-.58-.01-.18-.55c-.02-.07-.12-.07-.15 0l-.041.031zm-10.277 5.934l-.184.553-.59.004c-.08.01-.11.1-.05.15l.47.35-.18.56c-.03.07.06.13.12.09l.47-.34.47.34c.06.05.14-.01.12-.08l-.18-.56.47-.35c.06-.04.03-.14-.05-.14h-.59l-.18-.55c-.03-.07-.13-.07-.15 0l.034-.027zm2.172-8.106l-.184.553-.58.01c-.07 0-.1.1-.04.14l.47.35-.17.56c-.02.07.06.13.12.09l.48-.34.48.34c.06.05.14-.01.12-.08l-.18-.55.47-.34c.06-.04.03-.14-.04-.14h-.58l-.18-.55c-.02-.07-.12-.07-.15 0l-.036-.043zm5.935 10.278l-.185.553h-.583c-.075 0-.107.09-.046.14l.47.34-.177.55c-.03.07.05.13.12.08l.47-.34.47.34c.06.04.14-.02.12-.09l-.18-.56.47-.35c.06-.05.03-.14-.05-.14l-.59-.01-.18-.55c-.03-.07-.13-.07-.15 0l.021.037z" fill="#FFE15A"/></g><path d="M0 484h28v28H0z"/><g fill-rule="nonzero"><path d="M27.207 506.486H1.46c-.254 0-.46-.206-.46-.46v-16.552c0-.254.206-.46.46-.46h25.747c.254 0 .46.206.46.46v16.552c0 .254-.206.46-.46.46z" fill="#F5F5F5"/><path d="M27.667 490.358H1v-.884c0-.254.206-.46.46-.46h25.747c.254 0 .46.206.46.46v.884zM1 494.39h26.667v1.344H1v-1.344zm0-2.688h26.667v1.344H1v-1.344zm26.667 6.72H1.46c-.254 0-.46-.206-.46-.46v-.884h26.667v1.344zM1 502.454h26.667v1.344H1v-1.344zm26.207 4.032H1.46c-.254 0-.46-.206-.46-.46v-.884h26.667v.884c0 .254-.206.46-.46.46zM1 499.766h26.667v1.344H1v-1.344z" fill="#FF4B55"/><path d="M12.954 489.014H1.46c-.254 0-.46.206-.46.46v8.488c0 .254.206.46.46.46h11.494c.254 0 .46-.206.46-.46v-8.488c0-.254-.206-.46-.46-.46z" fill="#41479B"/><path d="M2.29 490.07l.103.305.322.002c.04 0 .058.054.025.08l-.26.19.098.306c.013.04-.032.073-.066.05l-.262-.188-.262.187c-.034.024-.08-.01-.066-.05l.097-.305-.26-.19c-.04-.026-.02-.08.02-.08l.32-.002.1-.305c.01-.04.07-.04.08 0h.011zm0 1.596l.103.305.322.01c.04 0 .058.06.025.08l-.26.19.098.31c.013.04-.032.08-.066.05l-.262-.19-.262.19c-.034.03-.08-.01-.066-.05l.097-.31-.26-.19c-.04-.02-.02-.08.02-.08h.32l.1-.3c.01-.04.07-.04.08 0l.011-.015zm0 1.597l.103.305.322.002c.04 0 .058.054.025.08l-.26.19.098.307c.013.04-.032.072-.066.048l-.262-.187-.262.187c-.034.024-.08-.01-.066-.048l.097-.307-.26-.19c-.04-.026-.02-.08.02-.08l.32-.002.1-.305c.01-.04.07-.04.08 0h.011zm0 1.597l.103.305.322.002c.04 0 .058.054.025.078l-.26.19.098.308c.013.04-.032.073-.066.048l-.262-.18-.262.19c-.034.03-.08-.01-.066-.05l.097-.3-.26-.19c-.04-.02-.02-.08.02-.08h.32l.1-.3c.01-.04.07-.04.08 0l.011-.021zm0 1.596l.103.305.322.01c.04 0 .058.06.025.08l-.26.19.098.31c.013.04-.032.08-.066.05l-.262-.19-.262.19c-.034.03-.08-.01-.066-.05l.097-.31-.26-.19c-.04-.02-.02-.08.02-.08h.32l.1-.3c.01-.04.07-.04.08 0l.011-.015zm1.24-5.604l.102.306.322.002c.04 0 .06.054.025.078l-.26.19.09.308c.01.04-.04.073-.07.048l-.26-.187-.27.187c-.04.025-.08-.008-.07-.048l.1-.307-.26-.2c-.04-.03-.02-.08.02-.08l.32-.01.1-.31c.01-.04.07-.04.08 0l.031.023zm0 1.598l.102.304.322.003c.04 0 .06.053.025.078l-.26.19.09.308c.01.04-.04.072-.07.048l-.26-.18-.27.19c-.04.03-.08-.01-.07-.04l.1-.3-.26-.19c-.04-.02-.02-.08.02-.08h.32l.1-.3c.01-.04.07-.04.08 0l.031-.031zm0 1.596l.102.305.322.01c.04 0 .06.06.025.08l-.26.2.09.31c.01.04-.04.08-.07.05l-.26-.19-.27.19c-.04.03-.08-.01-.07-.05l.1-.3-.26-.19c-.04-.02-.02-.07.02-.07h.32l.1-.3c.01-.04.07-.04.08 0l.031-.045zm0 1.596l.102.305.322.003c.04 0 .06.053.025.078l-.26.19.09.308c.01.04-.04.072-.07.048l-.26-.187-.27.187c-.04.024-.08-.008-.07-.048l.1-.307-.26-.2c-.04-.03-.02-.08.02-.08l.32-.01.1-.31c.01-.04.07-.04.08 0l.031.023zm1.24-5.572l.1.305.323.002c.042 0 .06.054.025.08l-.258.19.097.306c.012.04-.033.073-.067.05l-.262-.188-.26.187c-.035.024-.08-.01-.068-.05l.097-.305-.26-.19c-.032-.026-.015-.08.027-.08l.322-.002.1-.305c.014-.04.07-.04.084 0zm0 1.596l.1.305.323.01c.042 0 .06.06.025.08l-.258.19.097.31c.012.04-.033.08-.067.05l-.262-.19-.26.19c-.035.03-.08-.01-.068-.05l.097-.31-.26-.19c-.032-.02-.015-.08.027-.08h.322l.1-.3c.014-.04.07-.04.084 0v-.015zm0 1.597l.1.305.323.002c.042 0 .06.054.025.08l-.258.19.097.307c.012.04-.033.072-.067.048l-.262-.187-.26.187c-.035.024-.08-.01-.068-.048l.097-.307-.26-.19c-.032-.026-.015-.08.027-.08l.322-.002.1-.305c.014-.04.07-.04.084 0zm0 1.597l.1.305.323.002c.042 0 .06.054.025.078l-.258.19.097.308c.012.04-.033.073-.067.048l-.262-.18-.26.19c-.035.03-.08 0-.068-.04l.097-.3-.26-.19c-.032-.02-.015-.08.027-.08h.322l.1-.3c.014-.04.07-.04.084 0v-.031zm0 1.596l.1.305.323.01c.042 0 .06.06.025.08l-.258.19.097.31c.012.04-.033.08-.067.05l-.262-.19-.26.19c-.035.03-.08-.01-.068-.05l.097-.31-.26-.19c-.032-.02-.015-.08.027-.08h.322l.1-.3c.014-.04.07-.04.084 0v-.015zm1.24-5.604l.1.306.322.002c.042 0 .06.054.026.078l-.26.19.098.308c.013.04-.033.073-.067.048l-.27-.187-.26.187c-.04.025-.08-.008-.07-.048l.09-.307-.26-.2c-.03-.03-.02-.08.02-.08l.32-.01.1-.31c.01-.04.07-.04.08 0l.031.023zm0 1.598l.1.304.322.003c.042 0 .06.053.026.078l-.26.19.098.308c.013.04-.033.072-.067.048l-.27-.18-.26.19c-.04.03-.08-.01-.07-.04l.09-.3-.26-.19c-.03-.02-.02-.08.02-.08h.32l.1-.3c.01-.04.07-.04.08 0l.031-.031zm0 1.596l.1.305.322.01c.042 0 .06.06.026.08l-.26.2.098.31c.013.04-.033.08-.067.05l-.27-.19-.26.19c-.04.03-.08-.01-.07-.05l.09-.3-.26-.19c-.03-.02-.02-.07.02-.07h.32l.1-.3c.01-.04.07-.04.08 0l.031-.045zm0 1.596l.1.305.322.003c.042 0 .06.053.026.078l-.26.19.098.308c.013.04-.033.072-.067.048l-.27-.187-.26.187c-.04.024-.08-.008-.07-.048l.09-.307-.26-.2c-.03-.03-.02-.08.02-.08l.32-.01.1-.31c.01-.04.07-.04.08 0l.031.023zm1.238-5.572l.102.305.322.002c.04 0 .058.054.025.08l-.26.19.098.306c.013.04-.032.073-.066.05l-.27-.188-.26.187c-.04.024-.08-.01-.07-.05l.09-.305-.26-.19c-.03-.026-.02-.08.02-.08l.32-.002.1-.305c.01-.04.07-.04.08 0h.029zm0 1.596l.102.305.322.01c.04 0 .058.06.025.08l-.26.19.098.31c.013.04-.032.08-.066.05l-.27-.19-.26.19c-.04.03-.08-.01-.07-.05l.09-.31-.26-.19c-.03-.02-.02-.08.02-.08h.32l.1-.3c.01-.04.07-.04.08 0l.029-.015zm0 1.597l.102.305.322.002c.04 0 .058.054.025.08l-.26.19.098.307c.013.04-.032.072-.066.048l-.27-.187-.26.187c-.04.024-.08-.01-.07-.048l.09-.307-.26-.19c-.03-.026-.02-.08.02-.08l.32-.002.1-.305c.01-.04.07-.04.08 0h.029zm0 1.597l.102.305.322.002c.04 0 .058.054.025.078l-.26.19.098.308c.013.04-.032.073-.066.048l-.27-.18-.26.19c-.04.03-.08 0-.07-.04l.09-.3-.26-.19c-.03-.02-.02-.08.02-.08h.32l.1-.3c.01-.04.07-.04.08 0l.029-.031zm0 1.596l.102.305.322.01c.04 0 .058.06.025.08l-.26.19.098.31c.013.04-.032.08-.066.05l-.27-.19-.26.19c-.04.03-.08-.01-.07-.05l.09-.31-.26-.19c-.03-.02-.02-.08.02-.08h.32l.1-.3c.01-.04.07-.04.08 0l.029-.015zm1.24-5.604l.1.306.32.002c.043 0 .06.054.027.078l-.26.19.098.308c.013.04-.032.073-.066.048l-.262-.187-.262.187c-.033.025-.08-.008-.066-.048l.097-.307-.26-.2c-.032-.03-.015-.08.027-.08l.32-.01.11-.31c.02-.04.07-.04.08 0l-.003.023zm0 1.598l.1.304.32.003c.043 0 .06.053.027.078l-.26.19.098.308c.013.04-.032.072-.066.048l-.262-.18-.262.19c-.033.03-.08-.01-.066-.04l.097-.3-.26-.19c-.032-.02-.015-.08.027-.08h.32l.11-.3c.02-.04.07-.04.08 0l-.003-.031zm0 1.596l.1.305.32.01c.043 0 .06.06.027.08l-.26.2.098.31c.013.04-.032.08-.066.05l-.262-.19-.262.19c-.033.03-.08-.01-.066-.05l.097-.3-.26-.19c-.032-.02-.015-.07.027-.07h.32l.11-.3c.02-.04.07-.04.08 0l-.003-.045zm0 1.596l.1.305.32.003c.043 0 .06.053.027.078l-.26.19.098.308c.013.04-.032.072-.066.048l-.262-.187-.262.187c-.033.024-.08-.008-.066-.048l.097-.307-.26-.2c-.032-.03-.015-.08.027-.08l.32-.01.11-.31c.02-.04.07-.04.08 0l-.003.023zm1.24-5.572l.1.305.322.002c.042 0 .06.054.025.08l-.258.19.097.306c.012.04-.033.073-.067.05l-.262-.188-.26.187c-.035.024-.08-.01-.068-.05l.097-.305-.26-.19c-.032-.026-.015-.08.027-.08l.33-.002.1-.305c.02-.04.07-.04.09 0h-.013zm0 1.596l.1.305.322.01c.042 0 .06.06.025.08l-.258.19.097.31c.012.04-.033.08-.067.05l-.262-.19-.26.19c-.035.03-.08-.01-.068-.05l.097-.31-.26-.19c-.032-.02-.015-.08.027-.08h.33l.1-.3c.02-.04.07-.04.09 0l-.013-.015zm0 1.597l.1.305.322.002c.042 0 .06.054.025.08l-.258.19.097.307c.012.04-.033.072-.067.048l-.262-.187-.26.187c-.035.024-.08-.01-.068-.048l.097-.307-.26-.19c-.032-.026-.015-.08.027-.08l.33-.002.1-.305c.02-.04.07-.04.09 0h-.013zm0 1.597l.1.305.322.002c.042 0 .06.054.025.078l-.258.19.097.308c.012.04-.033.073-.067.048l-.262-.18-.26.19c-.035.03-.08 0-.068-.04l.097-.3-.26-.19c-.032-.02-.015-.08.027-.08h.33l.1-.3c.02-.04.07-.04.09 0l-.013-.031zm0 1.596l.1.305.322.01c.042 0 .06.06.025.08l-.258.19.097.31c.012.04-.033.08-.067.05l-.262-.19-.26.19c-.035.03-.08-.01-.068-.05l.097-.31-.26-.19c-.032-.02-.015-.08.027-.08h.33l.1-.3c.02-.04.07-.04.09 0l-.013-.015zm1.238-5.604l.102.306.32.002c.043 0 .06.054.027.078l-.26.19.098.308c.013.04-.033.073-.067.048l-.26-.187-.263.187c-.034.025-.08-.008-.067-.048l.097-.307-.258-.2c-.034-.03-.017-.08.025-.08l.322-.01.102-.31c.013-.04.07-.04.082 0v.023zm0 1.598l.102.304.32.003c.043 0 .06.053.027.078l-.26.19.098.308c.013.04-.033.072-.067.048l-.26-.18-.263.19c-.034.03-.08-.01-.067-.04l.097-.3-.258-.19c-.034-.02-.017-.08.025-.08h.322l.102-.3c.013-.04.07-.04.082 0v-.031zm0 1.596l.102.305.32.01c.043 0 .06.06.027.08l-.26.2.098.31c.013.04-.033.08-.067.05l-.26-.19-.263.19c-.034.03-.08-.01-.067-.05l.097-.3-.258-.19c-.034-.02-.017-.07.025-.07h.322l.102-.3c.013-.04.07-.04.082 0v-.045zm0 1.596l.102.305.32.003c.043 0 .06.053.027.078l-.26.19.098.308c.013.04-.033.072-.067.048l-.26-.187-.263.187c-.034.024-.08-.008-.067-.048l.097-.307-.258-.2c-.034-.03-.017-.08.025-.08l.322-.01.102-.31c.013-.04.07-.04.082 0v.023zm1.24-5.572l.1.305.32.002c.044 0 .06.054.028.08l-.26.19.098.306c.013.04-.032.073-.066.05l-.262-.188-.262.187c-.034.024-.08-.01-.066-.05l.097-.305-.26-.19c-.033-.026-.015-.08.026-.08l.32-.002.1-.305c.01-.04.07-.04.08 0h.007zm0 1.596l.1.305.32.01c.044 0 .06.06.028.08l-.26.19.098.31c.013.04-.032.08-.066.05l-.262-.19-.262.19c-.034.03-.08-.01-.066-.05l.097-.31-.26-.19c-.033-.02-.015-.08.026-.08h.32l.1-.3c.01-.04.07-.04.08 0l.007-.015zm0 1.597l.1.305.32.002c.044 0 .06.054.028.08l-.26.19.098.307c.013.04-.032.072-.066.048l-.262-.187-.262.187c-.034.024-.08-.01-.066-.048l.097-.307-.26-.19c-.033-.026-.015-.08.026-.08l.32-.002.1-.305c.01-.04.07-.04.08 0h.007zm0 1.597l.1.305.32.002c.044 0 .06.054.028.078l-.26.19.098.308c.013.04-.032.073-.066.048l-.262-.18-.262.19c-.034.03-.08 0-.066-.04l.097-.3-.26-.19c-.033-.02-.015-.08.026-.08h.32l.1-.3c.01-.04.07-.04.08 0l.007-.031zm0 1.596l.1.305.32.01c.044 0 .06.06.028.08l-.26.19.098.31c.013.04-.032.08-.066.05l-.262-.19-.262.19c-.034.03-.08-.01-.066-.05l.097-.31-.26-.19c-.033-.02-.015-.08.026-.08h.32l.1-.3c.01-.04.07-.04.08 0l.007-.015z" fill="#F5F5F5"/></g><path d="M0 535h28v28H0z"/><g transform="translate(1 540)" fill-rule="nonzero"><path d="M26.207 17.486H.46c-.254 0-.46-.206-.46-.46V.474C0 .22.206.014.46.014h25.747c.254 0 .46.206.46.46v16.552c0 .254-.206.46-.46.46z" fill="#F5F5F5"/><circle fill="#FF4B55" cx="13.333" cy="8.75" r="5.057"/></g><g fill="#414146" fill-rule="nonzero"><path d="M12 608.2c5.633 0 10.2-4.567 10.2-10.2 0-5.633-4.567-10.2-10.2-10.2-5.633 0-10.2 4.567-10.2 10.2 0 5.633 4.567 10.2 10.2 10.2zm0-1.2c-4.97 0-9-4.03-9-9s4.03-9 9-9 9 4.03 9 9-4.03 9-9 9z"/><path d="M11.71 594.235c-.91 0-1.65.755-1.65 1.683 0 .93.74 1.683 1.65 1.683.91 0 1.65-.75 1.65-1.68 0-.93-.74-1.68-1.65-1.68v-.006zm0 4.506c-1.633 0-2.856-1.15-2.856-2.81 0-1.66 1.223-2.86 2.855-2.86s2.8 1.2 2.8 2.86c0 1.67-1.17 2.82-2.81 2.82l.011-.01zm-.781 4.07c.23.39.79.39 1.02.01l1.58-2.59.22.08c.48.19.96.45 1.41.81.2.16.39.34.57.53.33.36.58.86.77 1.47.26.85.34 1.72.34 2.32-.01.34.26.61.59.61.33.01.6-.26.61-.59 0-.72-.1-1.7-.4-2.68-.24-.77-.58-1.43-1.04-1.93-.22-.23-.46-.45-.71-.65-.947-.75-1.89-1.11-2.55-1.23-.246-.04-.49.07-.62.28l-1.307 2.13-1.276-2.13c-.13-.21-.38-.33-.627-.28-.62.12-1.49.48-2.35 1.25-.23.2-.44.42-.64.66-.414.5-.72 1.15-.937 1.9-.17.59-.28 1.22-.34 1.84-.038.37-.05.67-.05.84 0 .33.265.6.6.61.33 0 .6-.27.6-.6 0-.14.01-.4.043-.73.053-.56.15-1.112.3-1.624.18-.61.415-1.11.71-1.465.16-.195.33-.37.506-.53.4-.36.82-.62 1.25-.8l.13-.05 1.55 2.578.048-.039z"/></g><path d="M0 586h24v24H0z"/><g fill="#414146" fill-rule="nonzero"><path d="M3.6 649.997c0-.002 16.8.003 16.8.003v-11.997c0 .002-16.8-.003-16.8-.003v11.997zm-1.2-11.994c0-.664.534-1.203 1.2-1.203h16.8c.662 0 1.2.547 1.2 1.203v11.994c0 .664-.534 1.203-1.2 1.203H3.6c-.662 0-1.2-.547-1.2-1.203v-11.994z"/><path d="M12.03 643.34l-8.457-5.995c-.27-.192-.645-.128-.837.142-.19.27-.128.645.143.837l8.81 6.246c.21.15.49.147.7-.005l8.76-6.386c.27-.2.32-.58.13-.84-.2-.27-.57-.33-.84-.13l-8.42 6.13.011.001z"/></g><path d="M0 632h24v24H0zM0 679h24v24H0z"/><g fill="#414146" fill-rule="nonzero"><path d="M12.18338 693.06568l6.75042 6.7525c.24347.24243.63884.24243.88438 0 .24243-.24554.24243-.64091 0-.88438l-6.7525-6.75042c-.24347-.2445-.63884-.2445-.8823 0-.2445.24346-.2445.63883 0 .8823z"/><path d="M6.89815 694.10015c-2.26402-2.26408-2.26402-5.93622 0-8.2023 2.26702-2.26408 5.93805-2.26408 8.20407 0 2.26402 2.26608 2.26402 5.93822 0 8.2033-2.26602 2.27008-5.93805 2.27008-8.20407 0v-.001zm9.05208-9.05033c-2.73402-2.7331-7.16506-2.7331-9.90009 0-2.73302 2.7341-2.73402 7.16626 0 9.90036 2.73403 2.7331 7.16607 2.7331 9.9001 0 2.73302-2.7341 2.73302-7.16626 0-9.90036z"/></g><path d="M0 726h24v24H0z"/><g fill-rule="nonzero"><path fill="#3A5998" d="M2 728h20v20H2z"/><path d="M10.19 744.92h2.883v-6.975h1.922l.255-2.404h-2.177l.003-1.2c0-.62.06-.96.96-.96h1.2v-2.4h-1.923c-2.31 0-3.123 1.17-3.123 3.13v1.44H8.75v2.41h1.44v6.98-.021z" fill="#FFF"/></g><path d="M0 773h24v24H0z"/><g fill-rule="nonzero"><path fill="#1DA1F2" d="M2 775h20v20H2z"/><path d="M13.36 779.863c-1.202.438-1.96 1.566-1.875 2.8l.03.477-.482-.06c-1.75-.222-3.28-.98-4.578-2.254l-.635-.632-.163.466c-.346 1.04-.125 2.14.596 2.88.385.407.298.465-.365.222-.23-.077-.433-.136-.452-.107-.067.07.163.953.346 1.303.25.487.76.963 1.317 1.245l.47.223-.56.01c-.54 0-.56.01-.5.214.19.632.95 1.303 1.8 1.595l.59.204-.52.31c-.77.44-1.68.7-2.58.72-.44.01-.79.04-.79.07 0 .09 1.17.64 1.85.85 2.05.63 4.48.36 6.31-.72 1.3-.77 2.59-2.3 3.2-3.78.32-.79.65-2.23.65-2.92 0-.45.03-.51.56-1.04.32-.31.61-.65.67-.75.1-.18.09-.18-.41-.02-.82.29-.93.25-.53-.18.3-.31.66-.88.66-1.04 0-.03-.15.02-.31.1-.18.09-.56.24-.85.33l-.52.16-.47-.32c-.26-.18-.63-.37-.82-.43-.49-.14-1.24-.12-1.69.04l.051.034z" fill="#FFF"/></g><path d="M0 819h24v24H0z"/><g fill-rule="nonzero"><path fill="#DB4437" d="M2 821h20v20H2z"/><path d="M9.414 835.98c-2.802 0-5.08-2.24-5.08-4.99 0-2.752 2.278-4.99 5.08-4.99 1.225 0 2.41.435 3.332 1.224l-1.292 1.458c-.565-.483-1.29-.75-2.04-.75-1.717 0-3.113 1.372-3.113 3.058 0 1.685 1.4 3.056 3.12 3.056 1.45 0 2.4-.696 2.71-1.944h-2.69v-1.933h4.77v.96c0 2.89-1.92 4.84-4.79 4.84l-.007.011zm10.92-5.647h-1.667v-1.666h-1.334v1.666h-1.666v1.334h1.666v1.666h1.334v-1.666h1.666l.001-1.334z" fill="#FFF"/></g><path d="M0 866h24v24H0z"/><path d="M10.9541 869.03521c-1.69794.15304-3.13173.65015-4.49548 1.55636-2.31327 1.54037-3.8291 4.03595-4.12227 6.7836-.04803.4681-.04803 1.53035.004 1.99046.12007 1.07325.44025 2.15751.93052 3.15674l.25013.50012-.78043 2.35055c-.75041 2.26553-.78043 2.35855-.7204 2.45558.04003.05501.10006.12603.1601.15603.09004.05001.25013.01 2.66146-.62014l2.56141-.68016.42023.19004c2.04113.91022 4.3624 1.06025 6.50359.4301 2.47136-.73017 4.60254-2.54059 5.72315-4.84113.44025-.9002.70039-1.7304.86048-2.73064.10005-.61015.12006-1.95046.04002-2.5306-.25014-1.7704-.93051-3.37079-2.0111-4.7211-1.46081-1.83043-3.622-3.05072-6.00332-3.4008-.3602-.06001-1.6209-.10002-1.95107-.07002l-.03102.02501zm-2.27726 3.24576c.24514.10002.45025.26006.76042.57013.3572.36009.5543.61015.93052 1.18028.32618.49012.41523.73017.39221 1.05025-.022.32007-.11506.4501-.56831.83019-.33719.28007-.43024.38009-.5273.57014-.15007.29006-.16008.48011-.02.73017.13007.26006 2.9016 3.02071 3.14173 3.13073.40022.18004.77042.03001 1.20066-.47011.51028-.61014.61034-.68016 1.00055-.68016.28016 0 .52029.09002.95053.37009.58032.37008.95052.67016 1.33073 1.07025.42023.4301.5603.71017.5603 1.10026 0 .40009-.11005.61014-.62033 1.12026-.51028.52012-.9105.82019-1.34074 1.03024-.47026.22005-.77043.28007-1.2807.28007-.93052-.01001-1.82101-.4001-2.91161-1.2703-.30017-.24006-3.71205-3.63085-4.24234-4.20099-.79044-.8702-1.31072-1.7404-1.51083-2.51058-.13007-.49012-.13007-1.12027-.02001-1.55037.10005-.37008.32017-.81019.60033-1.17027.29016-.38009 1.02056-1.10026 1.22067-1.20028.32018-.17004.69038-.18005 1.00055-.04001l-.04703.06001z" fill="#34AF23" fill-rule="nonzero"/><path d="M22 935v-22H0v22z"/><path d="M16.2929 919.68119c.39052-.39053 1.02368-.39053 1.4142 0 .39053.39052.39053 1.02369 0 1.41421L10.8025 928l-6.67507-6.91731c-.3835-.39742-.37223-1.03049.0252-1.41399.39741-.3835 1.03048-.37222 1.41398.0252l5.26132 5.45225 5.46496-5.46496z" fill="#787887" fill-rule="nonzero"/><path d="M22 2045v-22H0v22z"/><path d="M16.2929 2029.68119c.39052-.39053 1.02368-.39053 1.4142 0 .39053.39052.39053 1.02369 0 1.41421L10.8025 2038l-6.67507-6.91731c-.3835-.39742-.37223-1.03049.0252-1.41399.39741-.3835 1.03048-.37222 1.41398.0252l5.26132 5.45225 5.46496-5.46496z" fill="#FFF" fill-rule="nonzero"/><path d="M0 1112h26.18182v24H0z"/><g stroke-linecap="round" stroke="#FFF" stroke-width="2"><path d="M7.29195 1124.7l13.67377-.00005M6.55667 1124.7306l7.55155-7.55154M6.60358 1124.75678l7.50062 7.50605"/></g><g><g transform="translate(7.52 1217.13033)"><mask id="b" fill="#fff"><use xlink:href="#a"/></mask><path d="M1.97155.23267C1.06457.23267.3289.96953.3289 1.87651c0 .90816.73568 1.64384 1.64266 1.64384.90816 0 1.64384-.73568 1.64384-1.64384 0-.90698-.73568-1.64384-1.64384-1.64384m0 1.10294c.29803 0 .5409.24288.5409.5409 0 .29803-.24287.5409-.5409.5409-.29802 0-.5409-.24287-.5409-.5409 0-.29802.24288-.5409.5409-.5409" fill="#FFF" fill-rule="nonzero" mask="url(#b)"/></g><path d="M16.0458 1217.36242c-.90817 0-1.64267.73685-1.64267 1.64384 0 .90816.7345 1.64384 1.64266 1.64384.90699 0 1.64384-.73568 1.64384-1.64384 0-.907-.73685-1.64384-1.64384-1.64384m0 1.10293c.2992 0 .54208.24288.54208.5409 0 .2992-.24288.54091-.54208.54091-.29802 0-.53973-.2417-.53973-.5409 0-.29803.2417-.54091.53973-.54091M4.54278 1205.25667c-.81664 0-.62538 1.09706 0 1.09706h2.17067l.02347 6.03211c-.00235 2.14133 1.73418 3.87904 3.8767 3.87787l7.7968-.00704c.2546 0 .47871-.17014.54794-.41536l1.85034-6.55776c.10326-.36491-.17013-.7263-.54912-.7263H7.84806s-.00117-.25578-.00117-.57024v-2.1601c0-.31446-.25461-.57024-.57024-.57024H4.54278zm15.01398 4.40352l-1.43264 5.07936c-.0704.24522-.2945.41536-.54912.41536l-6.96139.00586c-1.52768 0-2.77728-1.24842-2.77493-2.77728l.0047-2.7233H19.55675z" fill="#FFF" fill-rule="nonzero"/></g><g><g transform="translate(6.52 2006.13033)"><mask id="d" fill="#fff"><use xlink:href="#c"/></mask><path d="M1.97155.23267C1.06457.23267.3289.96953.3289 1.87651c0 .90816.73568 1.64384 1.64266 1.64384.90816 0 1.64384-.73568 1.64384-1.64384 0-.90698-.73568-1.64384-1.64384-1.64384m0 1.10294c.29803 0 .5409.24288.5409.5409 0 .29803-.24287.5409-.5409.5409-.29802 0-.5409-.24287-.5409-.5409 0-.29802.24288-.5409.5409-.5409" fill="#787887" fill-rule="nonzero" mask="url(#d)"/></g><path d="M15.0458 2006.36242c-.90817 0-1.64267.73685-1.64267 1.64384 0 .90816.7345 1.64384 1.64266 1.64384.90699 0 1.64384-.73568 1.64384-1.64384 0-.907-.73685-1.64384-1.64384-1.64384m0 1.10293c.2992 0 .54208.24288.54208.5409 0 .2992-.24288.54091-.54208.54091-.29802 0-.53973-.2417-.53973-.5409 0-.29803.2417-.54091.53973-.54091M3.54278 1994.25667c-.81664 0-.62538 1.09706 0 1.09706h2.17067l.02347 6.03211c-.00235 2.14133 1.73418 3.87904 3.8767 3.87787l7.7968-.00704c.2546 0 .47871-.17014.54794-.41536l1.85034-6.55776c.10326-.36491-.17013-.7263-.54912-.7263H6.84806s-.00117-.25578-.00117-.57024v-2.1601c0-.31446-.25461-.57024-.57024-.57024H3.54278zm15.01398 4.40352l-1.43264 5.07936c-.0704.24522-.2945.41536-.54912.41536l-6.96139.00586c-1.52768 0-2.77728-1.24842-2.77493-2.77728l.0047-2.7233H18.55675z" fill="#787887" fill-rule="nonzero"/></g><g><path d="M0 1156h24v24H0z"/><g fill="#787887" fill-rule="nonzero"><path d="M5.60604 1162.9318l13.0888.00003c.34518 0 .625-.29.625-.64773 0-.35773-.27982-.64772-.625-.64773l-13.0888-.00002c-.34517 0-.625.29-.625.64773 0 .35773.27982.64773.625.64773z"/><path d="M10.5808 1159.95227h3.10664v1.84192c0 .35773.27982.64773.625.64773.34517 0 .625-.29.625-.64773v-2.48965c0-.35773-.27983-.64772-.625-.64772H9.95579c-.34518 0-.625.29-.625.64772v2.48965c0 .35773.27982.64773.625.64773s.625-.29.625-.64773v-1.84192zM11.14992 1173.11698l.00851-7.22558c.00042-.35772-.27906-.64808-.62423-.64851-.34518-.00044-.62534.2892-.62577.64693l-.0085 7.22558c-.00043.35773.27905.64808.62423.64851.34518.00044.62534-.2892.62576-.64693zM14.56782 1172.96056l.00244-7.13371c.00012-.35773-.2796-.64783-.62478-.64796-.34518-.00012-.6251.28977-.62522.6475l-.00244 7.13371c-.00012.35773.2796.64783.62478.64796.34518.00013.6251-.28977.62522-.6475z"/><path d="M7.62545 1175.83172v-13.3609c0-.35773-.27982-.64773-.625-.64773-.34517 0-.625.29-.625.64773v14.00863c0 .35772.27983.64772.625.64772h10.21292c.34518 0 .625-.29.625-.64772v-14.0452c0-.35772-.27982-.64772-.625-.64772s-.625.29-.625.64773v13.39746H7.62545z"/></g></g><g><path d="M0 1049h40v40H0z"/><g fill-rule="nonzero"><path d="M17.62888 1088.06874c-.27626 0-.55037-.0411-.79857-.12353-.6928-.2281-1.29929-.66624-1.6554-1.3129-.45756-.82679-.4554-1.824.00863-2.6482.36043-.63892.99065-1.11644 1.69425-1.32023.25684-.07445.51152-.10975.76404-.10975.48993 0 .96907.13213 1.42015.36799.52446.27373.86331.8031 1.04029 1.34777.03453.1104.05611.22294.06906.33592.0885.29202.13382.59996.11223.87477-.03669.507-.10791.84938-.3669 1.29827-.23094.3966-.559.69164-.94533.9305-.38633.2393-.86763.35939-1.34245.35939" fill="#FFA000"/><path d="M13.87346 1076.66036c-.85036-3.48595-1.16979-10.13356 3.82664-10.13356.06259 0 .1295.00108.19424.00323a20.968 20.968 0 0 0 .70792.01184c2.98707 0 7.70292-.62213 8.45616-3.93098.71223-3.13303-1.89282-6.26133-4.65974-7.36528-.93238-.37165-1.90576-.54402-2.87915-.54402-2.16691 0-4.3252.85605-5.98276 2.27268-.18993-.42522-.40144-.79622-.62159-1.11988 2.0439-1.16528 4.56046-2.10977 6.99284-2.10977.68418 0 1.35972.07424 2.01584.23865 1.29713.32408 2.53167.93847 3.52232 1.84014 1.1331 1.0325 1.81512 2.42762 2.28778 3.86512.94101 2.85285-.7446 5.53785-3.33023 6.79674-1.41368.68862-2.99138.9701-4.54535 1.1003-1.21727.10178-2.64605-.09103-3.79642.37508-1.19785.48505-1.65324 1.88167-1.80864 3.05793-.20288 1.54037.1036 3.09516.4187 4.60066a.46313.46313 0 0 0-.03884.01356c-.50936.19561-.75972 1.02756-.75972 1.02756m2.1367-.69766c-.1813 0-.3777-.09146-.57626-.18314-.16834-.07768-.33885-.15537-.5072-.17732-.33669-1.58642-.67554-3.24988-.3777-4.86837.15109-.81343.45325-1.74222 1.13095-2.26493.68633-.52916 1.6036-.50635 2.43022-.53584 2.73239-.09705 5.71514-.37551 7.90364-2.18358.93022-.76696 1.6921-1.77903 2.05684-2.93355.4144-1.31011.16403-2.57675-.32806-3.8279-.50504-1.28708-1.14173-2.47496-2.1885-3.4044-.9151-.81192-2.0223-1.39489-3.19426-1.74157-.78561-.23241-1.60144-.33592-2.4259-.33592-2.49498 0-5.07197.94901-7.1655 2.14313-.49641-.66732-1.03598-1.11256-1.50217-1.4063.8223-.82226 2.3439-1.72307 3.43167-2.10138 1.15468-.4007 2.35468-.74609 3.5698-.8892a8.51214 8.51214 0 0 1 .99497-.05853c.90432 0 1.79137.14462 2.67411.41555 1.09425.33635 2.25325.70476 3.25037 1.27697 1.85829 1.06952 3.2439 3.04867 4.3619 4.83157 1.2928 2.06372 1.42878 4.21073.27841 6.65772-1.42878 3.03899-4.90362 4.44314-4.91657 4.4595-1.69856.86228-3.63454 1.20746-5.54894 1.20746-.25252 0-.50504-.00603-.75756-.01765-.17914-.0084-.3928-.02238-.61511-.02238-.6108 0-1.2777.10588-1.46116.72672-.19209.64085.03453 1.54962.09497 2.20188.07338.7491.16618 1.49539.27626 2.23975-.28274.17754-.43814.67335-.74677.77062-.04532.01463-.0928.02109-.14245.02109m-1.2885-.35572c.03238-.00689.06691-.01076.10576-.01076h.00648c-.0367 0-.07554.00344-.11223.01076m3.51368-.14397v-.00043.00043m0-.00086v-.00064.00064m0-.00064c-.35827-.03207-.71439-.35701-1.08777-.35701h-.00648c-.1187-.80397-.21582-1.6101-.2892-2.41945-.05828-.6684-.38418-1.90663.3-2.28903.22446-.1259.50288-.16032.78561-.16032.3 0 .60648.03895.86763.04777.18993.00667.37986.0099.56763.0099.41439 0 .82662-.01571 1.23885-.04907 1.59066-.12804 3.14894-.52034 4.54319-1.2563 3.83959-1.4939 6.9173-6.04765 5.25326-10.1695-.44676-1.1059-1.2-2.08051-1.90792-3.0306-.7036-.94342-1.459-1.86338-2.3957-2.58644-.93237-.71832-2.01367-1.1117-3.11224-1.50055-1.18706-.42071-2.38059-.76653-3.6475-.76653a7.10611 7.10611 0 0 0-.13381.00129c-1.49785.02884-2.97196.42544-4.38348.8978-1.19784.40047-2.84246 1.39705-3.74678 2.29915-.3-.17152-.5633-.27868-.75108-.34346 2.53598-2.24104 5.7842-3.57547 9.15544-3.57547.55468 0 1.11152.03615 1.67051.11018 3.74246.49602 7.17845 2.76376 9.05832 6.0457 2.10648 3.68157 2.05684 8.53229-1.31871 11.4484-1.4957 1.29268-3.34966 2.1399-5.2511 2.65616-1.07267.2916-2.1842.4603-3.29139.55585-.42518.03659-.8482.05294-1.27339.05294-.18345 0-.3669-.00301-.55036-.00882-.17482-.0084-.3518-.01872-.52662-.0284-.38633 1.34066-.04317 3.27871.2331 4.4158m-1.19785-.3471a.35971.35971 0 0 1 .06474-.00818c-.01942.00129-.03669.00344-.05611.00645-.00216.00065-.00648.00108-.00863.00172m-5.29643-17.25825c-1.67915 0-3.17052-2.01466-1.94893-3.53803.60648.32882 2.08274 1.27073 3.1921 3.12658a4.6657 4.6657 0 0 0 .1554-.11836c-.44245.37164-.92807.52981-1.39857.52981m1.1741-2.00218c-.04964-.07015-.09712-.13815-.14676-.204.03885.04562.07554.0822.14676.204m-1.65108-1.61138c-.0518-.03357-.10576-.06542-.15756-.09512.03885.02002.09281.04304.15756.09512" fill="#28328C"/><path d="M13.87346 1076.66036s.25036-.83195.75972-1.02756c.259-.09985.5331.02346.80072.14676.25252.116.49857.23198.71871.16205.35828-.11298.51151-.7646.89353-.82894.41007-.06886.79856.31397 1.18921.34884 0 0-.50503 4.62842-.74676 5.05774 0 0-2.50577-2.5363-3.61513-3.8589" fill="#FFEB00"/><path d="M13.53677 1056.97427c-1.2777-2.86576-3.52232-3.27377-3.52232-3.27377l-.50072.4786s2.03958.8737 3.47052 3.26559c.18777-.13837.32374-.2464.55252-.47042" fill="#F3EA4A"/><path d="M9.79215 1054.32414s2.32663.66947 3.1921 3.12055l-1.46332 1.41319c-.36259.35184-.94317.34862-1.30144-.00689l-1.84533-1.82206c-.3367-.3327-.34317-.87326-.01511-1.21456l1.4331-1.49023" fill="#FFA000"/><path d="M14.67203 1075.61924c-.31511-1.5055-.62159-3.0603-.4187-4.60066.15539-1.17626.61078-2.57288 1.80863-3.05793 1.15037-.46611 2.57915-.2733 3.79642-.37509 1.55397-.13019 3.13167-.41167 4.54535-1.1003 2.58562-1.25888 4.27124-3.94388 3.33023-6.79673-.47266-1.4375-1.15468-2.83262-2.28778-3.86512-.99065-.90167-2.2252-1.51606-3.52232-1.84014-.65612-.16441-1.33166-.23865-2.01584-.23865-2.43238 0-4.94894.9445-6.99284 2.10977v-.00043c-.07122-.1218-.1079-.15838-.14676-.204v-.00065c2.09354-1.19412 4.67053-2.14313 7.1655-2.14313.82447 0 1.6403.10351 2.42591.33592 1.17195.34668 2.27915.92965 3.19426 1.74158 1.04677.92943 1.68346 2.1173 2.1885 3.4044.4921 1.25114.74245 2.51778.32806 3.82789-.36475 1.15452-1.12662 2.16659-2.05684 2.93355-2.1885 1.80807-5.17125 2.08653-7.90364 2.18358-.82662.02949-1.74389.00668-2.43022.53584-.6777.52271-.97986 1.4515-1.13094 2.26493-.29785 1.61849.041 3.28195.3777 4.86837a.71253.71253 0 0 0-.09065-.00602h-.00864c-.03885 0-.07338.00387-.10575.01076a.7547.7547 0 0 0-.04964.01226" fill="#14BEF0"/><path d="M14.67203 1075.62724v-.00085a.84398.84398 0 0 1 .0596-.01607c-.02073.0048-.03887.01043-.0596.01692m.30578-.02284c-.04146-.00508-.07774-.0079-.11143-.00818h.0026c.03627 0 .07255.00282.10883.0079v.00028" fill="#378FC2"/><path d="M12.96054 1055.91807v-.00056.00056m-.19212-.26791v-.00085.00085" fill="#8A9A51"/><path d="M16.89938 1075.171c-.11008-.74437-.20288-1.49067-.27626-2.23976-.06044-.65226-.28706-1.56103-.09497-2.20188.18346-.62084.85037-.72672 1.46116-.72672.2223 0 .43597.01399.61511.02238.25252.01162.50504.01765.75756.01765 1.9144 0 3.85038-.34518 5.54894-1.20747.01295-.01635 3.4878-1.4205 4.91657-4.4595 1.15037-2.44698 1.0144-4.59399-.27841-6.65771-1.118-1.7829-2.50361-3.76205-4.3619-4.83157-.99712-.5722-2.15612-.94062-3.25037-1.27697-.88274-.27093-1.7698-.41555-2.67411-.41555a8.51214 8.51214 0 0 0-.99497.05854c-1.21512.1431-2.41512.4885-3.5698.88919-1.08778.37831-2.60937 1.27912-3.43167 2.1016 0-.00022 0-.00043-.00216-.00065-.06475-.05208-.1187-.0751-.15756-.09512-.00863-.00516-.01726-.0099-.0259-.01484.90432-.9021 2.54894-1.89868 3.74678-2.29915 1.41152-.47236 2.88563-.86896 4.38348-.8978a7.10611 7.10611 0 0 1 .13381-.0013c1.26691 0 2.46044.34583 3.6475.76654 1.09857.38885 2.17987.78223 3.11225 1.50055.93669.72306 1.69209 1.64302 2.39569 2.58644.70792.95009 1.46116 1.9247 1.90792 3.0306 1.66404 4.12185-1.41367 8.6756-5.25326 10.1695-1.39425.73596-2.95253 1.12826-4.54319 1.2563-.41223.03336-.82446.04907-1.23885.04907-.18777 0-.3777-.00323-.56763-.0099-.26115-.00882-.56763-.04777-.86763-.04777-.28273 0-.56115.03443-.78561.16032-.68418.3824-.35828 1.62064-.3 2.28903.07338.80935.1705 1.61548.2892 2.41945a.46917.46917 0 0 0-.03885.00172.35973.35973 0 0 0-.06474.00817c-.04964.00969-.09497.02949-.13813.0566" fill="#14BEF0"/><path d="M16.89938 1075.19361v-.00197c.05182-.03554.10624-.06148.16585-.07417-.04924.01128-.10625.03356-.16585.07614m.24359-.08686a.5164.5164 0 0 1 .04664-.00225v.00197a.64335.64335 0 0 0-.02332-.00056.32216.32216 0 0 0-.02332.00084" fill="#378FC2"/><path d="M11.32362 1054.27757c0-.00028 0-.00056-.00282-.00085.00282.00029.00282.00057.00282.00057v.00028m-.20907-.1255c-.0113-.00648-.0226-.01269-.0339-.01917v-.00028c.0113.00648.0226.01269.0339.01945" fill="#8A9A51"/><path d="M17.48945 1080.51925v-.00022.00022-.00237.00237m.0026-.00323v-.0015.0015m-.00778-.00022v-.00021.00021m.00778-.00236c0-.00043 0-.00087.00259-.00151-.0026.00043-.0026.00108-.0026.0015m.0026-.00236v-.00237.00237m.00259-.00388v-.00086.00086m0-.0028v-.00064.00065m.00259-.00237v-.00086.00086m.0026-.00473v-.00022.00022m0-.00259v-.00021.00021m.00517-.00774v-.00022.00022m.0026-.0028v-.00022.00022m.39389-1.77601c.00259-.01097.00518-.02195.00518-.03292 0 .01097-.0026.02195-.00518.03292" fill="#70C8E6"/><path d="M17.48859 1080.51925v-.00022c0-.00021-.00216-.0015-.00432-.00323v-.00021c-.04964-.051-.64964-.65872-1.37698-1.41814.38201-.3695.70575-.54143 1.0964-.54143.1921 0 .39713.04067.63454.11922 0 .01097-.00216.02195-.00432.03292-.11654.83324-.23957 1.55737-.32806 1.7758v.0002c-.00215.00087-.00215.00173-.00215.0026v.0002c-.00216.00259-.00216.00496-.00432.00754V1080.4973c0 .00129-.00216.00258-.00216.00387v.00086c0 .00065 0 .00108-.00216.00172v.00344c0 .00044-.00216.00108-.00216.00151V1080.51193c-.00215.00064-.00215.00108-.00215.0015v.00258c-.00216.00044-.00216.00065-.00216.00087v.00237" fill="#FFA000"/></g></g><g><path d="M0 1002h24v24H0z"/><g transform="translate(4 1006)" fill-rule="nonzero"><rect fill="#414146" width="16" height="16" rx="3"/><g fill="#FFF" stroke="#FFF" stroke-width=".5"><path d="M5.16 3.524v3.432h1.83253c.24476 0 1.04425-.03406 1.2511-.09786C8.97993 6.631 9.448 6.02693 9.448 5.24c0-1.008-.768-1.716-1.884-1.716H5.16zM4.2 11V2.744h3.508c1.608 0 2.748 1.02 2.748 2.496 0 1.09162-.60792 1.92995-1.60962 2.30084-1.0017.3709-1.04395.07519-1.13838.1005l4.8818 5.94101h-1.08L6.712 7.74934 5.16 7.736V11H4.2z"/><path d="M11.51004 8.0451L7.0137 13.5855h1.08l4.42722-5.5404z"/></g></g></g><g><path d="M0 958h22v22H0z"/><g transform="translate(3 961)" stroke="#787887" stroke-width="1.5"><circle cx="5.95833" cy="5.95833" r="5.27083"/><path d="M10.06702 10.06702l5.75527 5.73944" stroke-linecap="round"/></g></g><g><path d="M0 1246h24v24H0z"/><g fill="#14BEF0" fill-rule="nonzero"><path d="M11.78798 1266.25028c4.69624 0 8.50329-3.80706 8.50329-8.5033 0-4.69623-3.80705-8.50328-8.5033-8.50328-4.69623 0-8.50328 3.80705-8.50328 8.50329 0 4.69623 3.80705 8.50329 8.50329 8.50329zm0-1.375c-3.93685 0-7.12829-3.19145-7.12829-7.1283 0-3.93684 3.19144-7.12828 7.12829-7.12828 3.93684 0 7.12829 3.19144 7.12829 7.12829 0 3.93684-3.19145 7.12829-7.1283 7.12829z"/><path d="M11.19667 1253.6233l-.03708 8.52915c-.00165.37969.30482.68883.6845.69048.3797.00165.68884-.30481.69049-.6845l.03708-8.52915c.00165-.3797-.30482-.68883-.6845-.69048-.3797-.00166-.68884.3048-.69049.6845z"/><path d="M15.99757 1257.01377H7.79525c-.3797 0-.6875.3078-.6875.6875s.3078.6875.6875.6875h8.20232c.3797 0 .6875-.3078.6875-.6875s-.3078-.6875-.6875-.6875z"/></g></g><g><path d="M0 1291h26.18182v24H0z"/><path d="M12.78798 1311.25028c4.69624 0 8.50329-3.80706 8.50329-8.5033 0-4.69623-3.80705-8.50328-8.5033-8.50328-4.69623 0-8.50328 3.80705-8.50328 8.50329 0 4.69623 3.80705 8.50329 8.50329 8.50329zm0-1.375c-3.93685 0-7.12829-3.19145-7.12829-7.1283 0-3.93684 3.19144-7.12828 7.12829-7.12828 3.93684 0 7.12829 3.19144 7.12829 7.12829 0 3.93684-3.19145 7.12829-7.1283 7.12829z" fill="#14BEF0" fill-rule="nonzero"/><path d="M16.99757 1302.70127H8.79525" stroke-linecap="round" stroke-linejoin="round" stroke="#14BEF0" stroke-width="1.5"/></g><g><path d="M0 1382h24v24H0z"/><g stroke-linecap="round" stroke-linejoin="round" stroke="#00A500"><path d="M1.6 1403h3.6v-10.8H1.6zM8.08 1392.2c5.76-2.4 7.20922-7.2 7.20922-7.2 4.49633 0 .7104 6.0448-.00999 7.20192H21.76c1.44-.00192 1.44.85399 1.44 1.19808 0 .3441-2.88 8.39936-2.88 8.39936S20.071 1403 17.44 1403h-5.03923c-.95693-.03584-2.13504-.24192-3.10733-1.088-.86323-.75008-1.21344-1.55264-1.21344-2.51264V1392.2z"/></g></g><g><path d="M24 1359H0v-24h24z"/><g stroke-linecap="round" stroke-linejoin="round" stroke="#FF2D00"><path d="M22.4 1338h-3.6v10.8h3.6zM15.92 1348.8c-5.76 2.4-7.20922 7.2-7.20922 7.2-4.49633 0-.7104-6.0448.00999-7.20192H2.24C.8 1348.8.8 1347.94409.8 1347.6c0-.3441 2.88-8.39936 2.88-8.39936S3.929 1338 6.56 1338h5.03923c.95693.03584 2.13504.24192 3.10733 1.088.86323.75008 1.21344 1.55264 1.21344 2.51264V1348.8z"/></g></g><g fill-rule="nonzero"><path d="M23.68262 1443.23563c.57429-2.55634.33571-5.2608-.79143-7.67314-.20857-.44709-.45286-.87909-.72714-1.29463-.33429-.73646-.78143-1.42752-1.36857-2.05015-.85143-.90528-1.93715-1.536-3.13572-1.92288-1.55714-.79268-3.30143-1.26157-5.09571-1.29312-2.11143-.03703-4.12857.52787-5.82857 1.536-.67857.17829-1.32857.42638-1.92429.76375-2.12714 1.20412-3.18714 3.30103-3.66143 5.47762-1.92857 3.15703-1.24143 7.58538.66 10.57235 2.12429 3.33792 5.97715 5.28123 10.07286 5.19771 1.28714.09998 2.60143-.00562 3.80714-.3526 2.40857-.6912 4.27572-2.20114 5.70572-4.06751.39-.5088.73571-1.0438 1.04-1.59648.67857-1.00375 1.12285-2.12435 1.24714-3.29692" fill="#79BB4C"/><path d="M17.69262 1443.16171c.24143-.96137.68429-2.44114-.26286-3.18583-.87714-.68982-2.43571-.37851-3.49-.3663-.32714.00425-.78.0879-1.09571.00822-.16429-.04114-.21572-.02592-.23-.01371.00428-.01646.00143-.06171-.04857-.17143-.10572-.22766.05143-.81737.07714-1.06697.03857-.37166.09143-.74057.15429-1.10798.08-.45545.04142-1.33165-.43429-1.49225-1.22714-.4128-2.27571.919-2.88571 1.83922-.61143.91872-1.40858 1.49061-2.50429 1.71429-.98429.0849-1.29286.13152-1.49857.48137-.17429.29746-.19572.7392-.04429 1.56055.19286 1.04242.58143 2.08046.87429 3.10094.21428.74043.32428 2.07346 1.06286 2.53714.40857.2577.83.54295 1.27428.40443.42714-.13289.75857-.33997.99857-.33037.45715.12754.81715.32352 1.29.34683.76.03977 1.52.07954 2.28.11657 1.14.0576 2.21572.007 2.96715-.92434.77428-.96137 1.22285-2.28466 1.51571-3.45038" fill="#FFFFFE"/><path d="M18.4969 1436.2962c-.38142.15237-.74285.33477-1.0857.55968-.22572.14798-.01144.50469.21713.35507.30858-.20435.63572-.37989.98286-.51703.25143-.10012.14143-.49906-.11428-.39772M17.7969 1434.36811c-.3957.54707-.83142 1.06135-1.30714 1.54684-.18857.19337.11429.48562.30286.29211.5-.51154.95714-1.056 1.37429-1.632.15714-.21806-.21429-.42377-.37-.20695M15.46833 1434.20766c-.14.34285-.2.7034-.18285 1.07232.01428.26345.44285.26482.42857 0-.01572-.336.04-.65143.16857-.96261.10143-.24686-.31286-.35397-.41429-.10971M6.97262 1439.31897s.62714-.09065 1.09-.38688c0 0 1.55571 7.50034 1.57714 8.14094l-.99857.33037s-.38857-5.54057-1.66857-8.08443" fill="#FFF"/></g><g fill-rule="nonzero"><path d="M39.47103 1501.11184c.95715-4.32984.55953-8.91056-1.31904-12.99651-.34762-.75726-.75477-1.48897-1.21191-2.1928-.55714-1.24739-1.30238-2.41789-2.28095-3.47247-1.41905-1.53334-3.22857-2.60163-5.2262-3.25691-2.59523-1.34263-5.50237-2.13682-8.49285-2.19025-3.51905-.06272-6.88095.89408-9.71429 2.60163-1.13095.30197-2.21428.72218-3.20714 1.29361-3.54524 2.03949-5.3119 5.59117-6.10238 9.27782-3.21428 5.34727-2.06905 12.84785 1.1 17.90708 3.54048 5.65366 9.9619 8.94518 16.7881 8.80372 2.14523.16934 4.33571-.00953 6.34523-.59722 4.01429-1.17073 7.1262-3.72822 9.50953-6.88943.65-.86178 1.22619-1.76794 1.73333-2.70406 1.13095-1.70012 1.87143-3.59814 2.07857-5.5842" fill="#79BB4C"/><path d="M29.4877 1500.98664c.40238-1.62834 1.14048-4.13473-.4381-5.39605-1.4619-1.1684-4.05952-.64111-5.81666-.62044-.54524.0072-1.3.1489-1.8262.01394-.2738-.06969-.35952-.0439-.38333-.02323.00715-.02788.00238-.10453-.08095-.29036-.17619-.3856.08572-1.38444.12857-1.8072.06429-.6295.15238-1.25436.25715-1.87666.13333-.77143.06904-2.25552-.72381-2.52752-2.04524-.6992-3.79286 1.55656-4.80953 3.11521-1.01905 1.5561-2.34762 2.52474-4.1738 2.9036-1.64048.14379-2.15477.22276-2.49763.81533-.29047.50383-.32619 1.25203-.0738 2.6432.32142 1.76563.96904 3.52382 1.45714 5.25227.35714 1.25413.54047 3.51196 1.77143 4.29733.68095.43647 1.38333.91963 2.1238.68502.71191-.22509 1.2643-.57584 1.6643-.55958.7619.21602 1.3619.54796 2.15.58745 1.26666.06737 2.53332.13473 3.8.19745 1.9.09756 3.69285.01184 4.94523-1.56562 1.29048-1.62834 2.0381-3.86969 2.52619-5.84414" fill="#FFFFFE"/><path d="M30.82818 1489.35807c-.63572.25807-1.2381.56702-1.80953.94797-.37619.25064-.01905.85482.3619.6014.5143-.34612 1.05953-.64345 1.6381-.87573.41905-.16957.23572-.8453-.19047-.67364M29.6615 1486.09233c-.65951.9266-1.3857 1.79768-2.17856 2.61998-.31429.32753.19047.82253.50476.49477.83333-.86643 1.59524-1.78862 2.29048-2.76422.2619-.36934-.35715-.71777-.61667-.35053M25.78056 1485.82056c-.23334.58072-.33334 1.1914-.30477 1.81626.02381.44622.7381.44854.71429 0-.02619-.56911.06667-1.10337.28095-1.63043.16905-.41812-.52143-.59954-.69047-.18583M11.62103 1494.47793s1.04524-.15354 1.81667-.65528c0 0 2.59286 12.70383 2.62857 13.78885l-1.66428.55958s-.64762-9.38444-2.78096-13.69315" fill="#FFF"/></g><g><path d="M0 1540h24v24H0z"/><path d="M19 1543H5c-1.1 0-2 .9-2 2v14c0 1.1.9 2 2 2h14c1.1 0 2-.9 2-2v-14c0-1.1-.9-2-2-2zm-9 14l-5-4.8077 1.4-1.34615 3.6 3.46154L17.6 1547l1.4 1.34615L10 1557z" fill="#14BEF0" fill-rule="nonzero"/></g><g fill="#787887" fill-opacity=".5" fill-rule="nonzero"><path d="M19 1592v14H5v-14h14zm0-2H5c-1.1 0-2 .9-2 2v14c0 1.1.9 2 2 2h14c1.1 0 2-.9 2-2v-14c0-1.1-.9-2-2-2z"/></g><g fill-rule="nonzero"><path d="M10.84759 1645.61445c-4.26116.58926-7.52862 4.18196-7.52862 8.51444v.77952c0 .03548-.0394.07023-.03242.10374h17.54639c.007-.0335-.03242-.06826-.03242-.10374v-.77952c0-4.33248-3.26746-7.92518-7.5285-8.51444.3919-.33674.65179-.8292.65179-1.37873 0-1.01221-.83572-1.83572-1.86947-1.83572-1.03374 0-1.8613.8235-1.8613 1.83572 0 .54952.26254 1.04199.65455 1.37873zm8.89344 8.51444v.77952c0 .03548.04694.07023.05382.10374H4.32464c.007-.0335.05382-.06826.05382-.10374v-.77952c0-4.17054 3.42204-7.56354 7.68129-7.56354 4.25924 0 7.68128 3.393 7.68128 7.56354zm-7.68128-10.69147c.44954 0 .81527.35812.81527.7983s-.36573.7983-.81527.7983c-.44954 0-.81528-.35812-.81528-.7983s.36574-.7983.81528-.7983z" stroke="#FFA000" stroke-width=".2" fill="#FFA000"/><path d="M1.20529 1643.84283c.06664 1.19656.75033 2.3092 1.97743 3.21767.09567.07075.20776.10498.31911.10498.16041 0 .3188-.07106.42295-.20592.1764-.22855.13032-.55388-.10309-.72661-.97049-.71852-1.50934-1.56454-1.5584-2.44656-.04534-.81458.33798-1.62128 1.10844-2.33306.95714-.88388 1.45648-1.91995 1.4445-2.99607-.01207-1.08795-.54542-2.1289-1.5423-3.00998l-.1284-.1136c-.2172-.19203-.5521-.17512-.74821.03745-.196.21257-.17895.5406.03825.73253l.1284.1136c.77153.682 1.18398 1.46058 1.19288 2.2513.0087.7789-.3759 1.55012-1.11203 2.23015-1.0045.92787-1.50236 2.0151-1.43953 3.14412zM7.17585 1639.57212c-.81781.75555-1.22307 1.64359-1.17147 2.56824.0536.96408.62382 1.89527 1.60565 2.62209.09557.07085.20787.10498.31912.10498.1603 0 .3187-.07106.42295-.20593.1764-.22854.1302-.55387-.1031-.7266-.7394-.54745-1.14975-1.18744-1.18672-1.85097-.03401-.61011.25671-1.21784.84049-1.75709.77904-.71955 1.18556-1.56557 1.17571-2.44665-.00985-.89053-.44382-1.74007-1.25464-2.45683l-.1013-.08963c-.2173-.19203-.55209-.17522-.7483.03735-.19612.21256-.17895.5406.03803.73262l.1015.08974c.58568.51767.89876 1.10486.90533 1.69805.00657.58397-.285 1.16503-.84325 1.68063" stroke="#FFC319" stroke-width=".2" fill="#FFC319"/><path d="M1.8 1655.6h20.43526c.33137 0 .6-.26863.6-.6s-.26863-.6-.6-.6H1.8c-.33137 0-.6.26863-.6.6s.26863.6.6.6z" fill="#FFC319"/></g><g><path d="M0 1719h24v24H0z"/><g transform="translate(2 1721)"><path d="M9.94348 21c-4.96275 0-9-4.03725-9-9s4.03725-9 9-9 9 4.03725 9 9-4.03725 9-9 9zm0-16.5c-4.1355 0-7.5 3.3645-7.5 7.5s3.3645 7.5 7.5 7.5 7.5-3.3645 7.5-7.5-3.3645-7.5-7.5-7.5zm3 6.55425c-1.11825 0-2.082-.837-2.2425-1.94775-.0585-.4095.22575-.7905.636-.849.411-.06225.7905.22575.84975.63525.05325.37725.37875.6615.75675.6615.37725 0 .70275-.28425.75675-.6615.06-.4095.4425-.69375.84975-.63525.41025.05925.6945.4395.636.849-.16125 1.11075-1.125 1.94775-2.2425 1.94775zm-6 0c-1.11825 0-2.082-.837-2.24175-1.94775-.05925-.4095.225-.7905.63525-.849.41025-.05625.7905.225.849.63525.054.37725.38025.6615.7575.6615.38325 0 .702-.27825.7575-.6615.0585-.41025.44325-.69225.849-.63525.41025.05925.6945.4395.63525.849-.1605 1.11075-1.12425 1.94775-2.24175 1.94775z" fill="#0FDC96" fill-rule="nonzero"/><path d="M9.94348 20.925c4.92133 0 8.925-4.00367 8.925-8.925 0-4.92133-4.00367-8.925-8.925-8.925-4.92133 0-8.925 4.00367-8.925 8.925 0 4.92133 4.00367 8.925 8.925 8.925zm0-16.5c4.17692 0 7.575 3.39808 7.575 7.575s-3.39808 7.575-7.575 7.575-7.575-3.39808-7.575-7.575 3.39808-7.575 7.575-7.575zm3 6.55425c1.08021 0 2.01237-.80962 2.16825-1.88336.05268-.36877-.20341-.71086-.57242-.76415-.367-.05272-.71096.20395-.76484.57164-.05925.41395-.41619.72587-.831.72587-.41557 0-.77256-.31197-.83097-.72576-.05356-.37017-.39628-.62758-.76493-.57174-.36875.05258-.62506.39516-.57236.76402.15517 1.07388 1.08731 1.88348 2.16827 1.88348zm-6 0c1.08031 0 2.01236-.80971 2.16752-1.88349.05333-.36859-.20259-.71072-.57146-.76399-.36726-.0516-.712.20471-.76434.57173-.06081.41996-.41102.72575-.83172.72575-.41493 0-.77251-.31205-.83175-.72591-.05247-.36795-.39373-.62238-.76416-.5716-.36884.0526-.62498.39523-.5716.76408.15442 1.07373 1.08645 1.88343 2.1675 1.88343z" stroke="#FAFAFC" stroke-width=".15"/><circle fill="#14AA9B" fill-rule="nonzero" cx="10.04348" cy="15" r="1.5"/><path d="M13.78551 2.46842c-.23337.33212.01496.77928.43276.77928h1.6901c.28814 0 .52173-.22386.52173-.5 0-.27615-.23359-.5-.52174-.5h-.70974l1.0318-1.46842C16.4638.44716 16.21548 0 15.79767 0h-1.57939c-.28814 0-.52173.22386-.52173.5s.23359.5.52173.5h.59905l-1.03181 1.46842zM17.17213 3.99622c-.23336.33212.01496.77928.43277.77928h2.08696c.28815 0 .52174-.22386.52174-.5s-.2336-.5-.52174-.5h-1.10662l1.40269-1.99622C20.2213 1.44716 19.97297 1 19.55516 1H17.6049c-.28815 0-.52174.22386-.52174.5s.2336.5.52174.5h.96992l-1.40269 1.99622z" stroke="#14AA9B" stroke-width=".15" fill="#14AA9B" fill-rule="nonzero"/></g></g><g><path d="M0 1676h24v24H0z"/><g fill-rule="nonzero"><path d="M19.74466 1688c0 4.30783-3.49218 7.8-7.8 7.8-4.30783 0-7.8-3.49217-7.8-7.8 0-4.30783 3.49217-7.8 7.8-7.8 4.30782 0 7.8 3.49217 7.8 7.8zm1.2 0c0-4.97057-4.02943-9-9-9-4.97058 0-9 4.02943-9 9s4.02942 9 9 9c4.97057 0 9-4.02943 9-9z" fill="#29BDD6"/><path d="M12.40158 1682.51747c.0042-.33134-.25603-.60342-.58126-.60771-.32523-.00429-.5923.26084-.5965.59219l-.0736 5.79468c-.00202.15867.05774.31169.1662.42557l2.62345 2.75473c.2265.23782.59934.24356.83278.0128.23344-.23074.23907-.6106.01258-.84842l-2.4541-2.5769.07045-5.54694zM3.3611 1681.82426l2.35572-2.4c.22999-.23431.22999-.6142 0-.84852-.23-.23432-.60289-.23432-.83288 0l-2.35572 2.4c-.23.23431-.23.6142 0 .84852.22999.23432.60288.23432.83287 0zM17.84043 1679.42426l2.35572 2.4c.23.23432.60288.23432.83288 0 .22999-.23431.22999-.6142 0-.84852l-2.35573-2.4c-.23-.23432-.60288-.23432-.83287 0-.23.23431-.23.6142 0 .84852z" fill="#14BEF0"/><path d="M5.95149 1694.33167l-1.17787 2.4c-.14546.29639-.02754.6568.26338.80499.29092.14819.64468.02806.79014-.26833l1.17786-2.4c.14546-.29639.02754-.6568-.26338-.80499-.29092-.14819-.64467-.02806-.79013.26833zM16.69279 1694.71694l.83287 2.54559c.10286.31436.43638.48426.74495.37947.30856-.10479.47532-.44458.37247-.75894l-.83288-2.54559c-.10285-.31436-.43637-.48426-.74494-.37947-.30857.10479-.47533.44458-.37247.75894z" fill="#29BDD6"/></g></g><g><path d="M16 1776v-16H0v16z"/><path d="M11.86193 1765.45412c.26035-.26034.68246-.26034.9428 0 .26036.26035.26036.68246 0 .94281L8.20168 1771l-4.45005-4.61154c-.25567-.26495-.24815-.687.0168-.94266.26494-.25567.68699-.24815.94266.0168l3.50754 3.63483 3.6433-3.6433z" fill="#FFF" fill-rule="nonzero"/></g><g><path d="M0 1788h22v22H0z"/><g transform="translate(3 1791)" stroke="#FFF" stroke-width="1.5"><circle cx="5.95833" cy="5.95833" r="5.27083"/><path d="M10.06702 10.06702l5.75527 5.73944" stroke-linecap="round"/></g></g><g><path d="M0 1819h20v20H0z"/><path d="M9.55095 1820.66667c-3.25991 0-5.89024 2.78395-5.89024 6.20621 0 2.3332 1.04581 4.6748 2.7768 6.92654.59804.77793 1.2377 1.49 1.87774 2.12243.2245.22183.4334.41819.62154.58728.11457.10296.19796.17493.24502.21408a.57624.57624 0 0 0 .73828 0c.04706-.03915.13046-.11112.24503-.21409.18813-.16908.39703-.36544.62153-.58727.64004-.63243 1.2797-1.3445 1.87774-2.12243 1.731-2.25174 2.7768-4.59334 2.7768-6.92654 0-3.42189-2.63104-6.20621-5.89024-6.20621zm-.42352 14.4165c-.60438-.59718-1.20913-1.27039-1.77255-2.0033-1.58745-2.06501-2.53271-4.18148-2.53271-6.20699 0-2.78625 2.12277-5.033 4.72878-5.033 2.60534 0 4.72879 2.24715 4.72879 5.033 0 2.02551-.94526 4.14198-2.53271 6.20698-.56343.73292-1.16818 1.40613-1.77255 2.00331-.14959.1478-.29138.28319-.42353.40545-.13215-.12226-.27394-.25764-.42352-.40545z" fill="#787887" fill-rule="nonzero"/><path d="M9.55063 1828.17521c-.85267 0-1.54307-.69739-1.54307-1.5587 0-.8613.6904-1.55869 1.54307-1.55869.85203 0 1.54308.6978 1.54308 1.5587 0 .86089-.69105 1.5587-1.54308 1.5587zm0 1.17321c1.4934 0 2.70454-1.22298 2.70454-2.7319 0-1.50893-1.21115-2.7319-2.70454-2.7319-1.49412 0-2.70453 1.22265-2.70453 2.7319s1.2104 2.7319 2.70453 2.7319z" fill="#787887" fill-rule="nonzero"/></g><g><path d="M24 1854H0v24h24z"/><path d="M13.24975 1869.28598c-.5785.94663-1.51638.94669-2.0949 0l-3.4051-5.57196c-.5785-.94663-.14728-1.71402.94456-1.71402h7.01597c1.10016 0 1.52309.76733.94456 1.71402l-3.40509 5.57196z" fill="#787887" fill-rule="nonzero"/></g><g><path d="M0 1885h26.18182v24H0z"/><g stroke-linecap="round" stroke="#14BEF0" stroke-width="2"><path d="M7.29195 1897.7l13.67377-.00005M6.55667 1897.7306l7.55155-7.55154M6.60358 1897.75678l7.50062 7.50605"/></g></g><g transform="translate(0 1918)"><path d="M0 0h24v24H0z"/><path d="M20.92 11.4c0 4.59502-3.72498 8.32-8.32 8.32s-8.32-3.72498-8.32-8.32 3.72498-8.32 8.32-8.32 8.32 3.72498 8.32 8.32zm1.28 0c0-5.30194-4.29806-9.6-9.6-9.6C7.29806 1.8 3 6.09806 3 11.4c0 5.30194 4.29806 9.6 9.6 9.6 5.30194 0 9.6-4.29806 9.6-9.6z" fill="#787887" fill-rule="nonzero"/><path d="M15.72766 8.7498c0 .48577-.09883.88031-.2957 1.18282-.19689.30251-.60092.74748-1.2113 1.33409-.44357.42655-.73296.78748-.86658 1.08279-.13441.2953-.20162.73227-.20162 1.31007 0 0-.01424.61367-.616.61367s-.52372-.61367-.52372-.61367c0-.65623.14385-1.14078.29803-1.54172.15418-.40095.40507-.79633.9364-1.31411l.58623-.57063c.16683-.15606.34416-.32022.54111-.50838.19695-.18816.38862-.33428.38862-.97493 0-.71037-.29724-1.00034-.54248-1.24497-.24523-.24462-.85392-.49453-1.47775-.49453-.77248 0-1.44579.35274-1.74229.92095-.16604.31611-.27253.76573-.29546 1.36194 0 0-.03926.56147-.57026.56147S9.6 9.2932 9.6 9.2932c0-.98996.2799-1.78624.8389-2.38966C10.99869 6.3009 11.76642 6 12.7429 6c.90294 0 1.6264.2577 2.16958.77308.5432.51619.81518 1.17483.81518 1.97672z" stroke="#787887" stroke-width=".1" fill="#787887" fill-rule="nonzero"/><circle fill="#787887" fill-rule="nonzero" cx="12.6" cy="16.2" r="1"/></g><g><path d="M0 1949h24v24H0z"/><path d="M19.9 1959.19722v10.41111H4.1v-10.4111h15.8zm-16.4-1.2c-.33137 0-.6.26863-.6.6v11.61111c0 .33137.26863.6.6.6h17c.33137 0 .6-.26863.6-.6v-11.6111c0-.33138-.26863-.6-.6-.6h-17z" fill="#787887" fill-rule="nonzero"/><path fill="#787887" fill-rule="nonzero" d="M10.475 1970.28056V1958.525h-1.2v11.75556zM14.725 1970.28056V1958.525h-1.2v11.75556z"/><path d="M7.74025 1957.6705c-.37848-.13054-.7359-.30062-1.06975-.5131-1.05405-.67082-1.72788-1.69166-1.75369-2.51967-.02313-.74231.48801-1.19449 1.67585-1.19449 1.1669 0 2.32313.9147 3.3801 2.48247.38711.5742.7312 1.19285 1.02677 1.81176.0273.05718.05326.11233.07785.1653-1.09238.17484-2.25774.14006-3.33713-.23226zm4.96648 1.0568l-.22856-.6027c-.07069-.18638-.20364-.50191-.39578-.90425-.31938-.66878-.6915-1.3378-1.11464-1.96545-1.25805-1.86605-2.70618-3.01166-4.3751-3.01166-1.82719 0-2.9209.96753-2.87526 2.43187.0392 1.25776.94122 2.6243 2.30882 3.49466.415.26412.85737.47463 1.32274.63515 1.34874.46523 2.7654.4893 4.08303.2549.30153-.05364.5262-.10843.65724-.14766l.61751-.18485z" fill="#787887" fill-rule="nonzero"/><path d="M12.59335 1957.9008a16.82127 16.82127 0 0 1 .07785-.1653c.29556-.6189.63966-1.23757 1.02677-1.81176 1.05697-1.56778 2.2132-2.48247 3.3801-2.48247 1.18784 0 1.69899.45218 1.67585 1.19449-.0258.82801-.69964 1.84885-1.75369 2.51967-.33385.21248-.69127.38256-1.06974.5131-1.0794.37233-2.24476.40711-3.33714.23227zm-1.01184 1.0094c.13104.03922.35572.094.65724.14765 1.31762.2344 2.7343.21033 4.08303-.2549.46537-.16052.90775-.37103 1.32274-.63515 1.3676-.87037 2.26962-2.2369 2.30882-3.49466.04564-1.46434-1.04807-2.43187-2.87526-2.43187-1.66892 0-3.11704 1.1456-4.3751 3.01166-.42315.62764-.79526 1.29667-1.11464 1.96545-.19213.40234-.32509.71787-.39577.90426l.561.21275-.17206.5748zm.73308-.36205c.05034-.13275.1441-.3573.27876-.64735a8.44633 8.44633 0 0 1-.14442-.0244c-.25384-.04516-.4343-.08917-.52328-.1158l-.17207.5748.56101.21275z" fill="#787887" fill-rule="nonzero"/></g></g></svg>