<svg width="210" height="48" viewBox="0 0 210 48" xmlns="http://www.w3.org/2000/svg" xmlns:xlink="http://www.w3.org/1999/xlink"><title>Artboard</title><defs><path d="M16.528.553c7.273 0 14.015 6.13 14.015 15.326 0 9.194-6.678 15.324-14.015 15.324-3.538 0-6.237-1.376-8.278-3.384v12.797H.04V1.433h7.904v2.503C9.984 2 12.708.553 16.528.553zm-1.311 22.595c3.929 0 7.114-2.896 7.114-7.256 0-4.361-3.185-7.255-7.114-7.255-3.93 0-7.115 2.915-7.115 7.255s3.185 7.256 7.115 7.256z" id="a"/></defs><g fill="none" fill-rule="evenodd"><path d="M209.757 22.892a8.085 8.085 0 1 0-16.17.002 8.085 8.085 0 1 0 16.17-.002M16.042 22.892a8.084 8.084 0 0 0-8.084-8.084 8.085 8.085 0 0 0 0 16.168 8.084 8.084 0 0 0 8.084-8.084" fill="#2CB7DF"/><use fill="#FFF" xlink:href="#a" transform="translate(20 7)"/><path d="M174.862 7.553c8.463 0 15.324 6.861 15.324 15.326 0 8.463-6.861 15.324-15.324 15.324-8.464 0-15.324-6.861-15.324-15.324 0-8.465 6.86-15.326 15.324-15.326zm0 22.595c3.928 0 7.114-2.916 7.114-7.256 0-4.339-3.186-7.255-7.114-7.255-3.93 0-7.116 2.894-7.116 7.255s3.186 7.256 7.116 7.256zM147.968 0h-8.21v28.192c0 5.757 3.514 9.373 10.47 9.373 2.79 0 5.398-.408 7.13-.87v-7.347c-1.607.462-3.4.811-5.621.811-2.292 0-3.77-.64-3.77-3.024V15.638h9.53V8.391h-9.53V0zM62.356 11.8V8.433h-7.913v28.906h8.204v-13.71c0-5.759 3.198-7.322 6.747-7.322.87 0 1.802.058 2.79.29V8.433c-.581-.175-1.454-.291-2.326-.291-2.327 0-5.673.763-7.502 3.658zM96.822 10.936V8.433h7.905v28.906h-8.21v-2.52c-2.041 2.008-4.74 3.384-8.278 3.384-7.338 0-14.014-6.13-14.014-15.324 0-9.196 6.74-15.326 14.014-15.326 3.82 0 6.543 1.447 8.583 3.383zM89.55 30.148c3.929 0 7.115-2.916 7.115-7.256 0-4.339-3.185-7.255-7.115-7.255s-7.115 2.894-7.115 7.255 3.185 7.256 7.115 7.256zM123.95 30.148c-3.93 0-7.114-2.895-7.114-7.256 0-4.361 3.185-7.255 7.114-7.255 2.53 0 4.717 1.184 6.03 3.259l6.577-4.724c-2.764-3.998-7.38-6.619-12.607-6.619-8.462 0-15.323 6.861-15.323 15.326 0 8.463 6.86 15.324 15.323 15.324 5.022 0 9.51-2.235 12.937-6.942l-6.643-4.6c-1.397 2.066-3.544 3.487-6.294 3.487z" fill="#FFF"/></g></svg>